<svg width="36" height="36" viewBox="0 0 36 36" fill="none" xmlns="http://www.w3.org/2000/svg">
<path fill-rule="evenodd" clip-rule="evenodd" d="M17.9814 0C17.2806 0.0112546 16.7159 0.581861 16.7159 1.28527C16.7159 1.29202 16.7159 1.29765 16.7159 1.3044V1.30328V23.9025L8.63244 15.8149C8.39959 15.582 8.07899 15.439 7.72465 15.439C7.01484 15.439 6.44002 16.0153 6.44002 16.7243C6.44002 17.0799 6.58401 17.4007 6.81686 17.6337L17.0928 27.9147C17.0961 27.9181 17.1018 27.9226 17.1074 27.9271L17.1096 27.9293C17.122 27.9417 17.1355 27.9541 17.149 27.9665L17.1501 27.9676C17.167 27.9834 17.185 27.998 17.203 28.0138L17.2053 28.016C17.2143 28.0228 17.2266 28.0318 17.239 28.0408L17.2424 28.043C17.2593 28.0554 17.2806 28.0712 17.3031 28.0858L17.3088 28.0892C17.32 28.097 17.3369 28.1072 17.3549 28.1173L17.3605 28.1207C17.374 28.1286 17.3931 28.1398 17.4134 28.1499L17.4201 28.1533C17.4302 28.1589 17.4482 28.1679 17.4662 28.1747L17.4741 28.1781C17.4854 28.1837 17.5056 28.1927 17.5259 28.2017L17.5337 28.2051C17.5461 28.2107 17.5686 28.2175 17.5911 28.2253L17.6001 28.2276C17.6091 28.231 17.6271 28.2377 17.6451 28.2433L17.6541 28.2456C17.6665 28.249 17.689 28.2557 17.7115 28.2602L17.7193 28.2614C17.7306 28.2647 17.752 28.2692 17.7722 28.2726L17.7801 28.2737C17.7925 28.276 17.8138 28.2794 17.8352 28.2816L17.842 28.2827C17.8577 28.285 17.8802 28.2872 17.9027 28.2884H17.9061C17.9263 28.2895 17.9488 28.2906 17.9724 28.2906H17.9736C17.9826 28.2906 17.9938 28.2917 18.0039 28.2917C18.0141 28.2917 18.0253 28.2917 18.0366 28.2906H18.0354C18.0748 28.2895 18.1131 28.2872 18.1502 28.2827L18.1445 28.2839C18.1547 28.2827 18.1569 28.2816 18.1603 28.2816L18.1524 28.2827C18.1862 28.2782 18.2132 28.2737 18.2402 28.2681L18.2323 28.2692C18.2615 28.2636 18.2818 28.2591 18.302 28.2546L18.293 28.2569C18.3178 28.2512 18.3347 28.2467 18.3504 28.2422L18.3414 28.2445C18.3763 28.2343 18.4021 28.2265 18.4269 28.2186L18.4179 28.2208C18.4426 28.213 18.4573 28.2062 18.473 28.2006L18.4651 28.204C18.4966 28.1916 18.5191 28.1826 18.5405 28.1713L18.5326 28.1747C18.5743 28.1556 18.6058 28.1398 18.6373 28.1229L18.6305 28.1263C18.6361 28.1229 18.6373 28.1218 18.6384 28.1207L18.6339 28.1241C18.6643 28.1072 18.6879 28.0914 18.7115 28.0757L18.707 28.079C18.7284 28.0644 18.7452 28.0543 18.761 28.0419L18.7576 28.0441C18.7891 28.0205 18.8161 27.9991 18.842 27.9766L18.8409 27.9777C18.8431 27.9755 18.8465 27.9721 18.8487 27.9699C18.8701 27.9519 18.8904 27.935 18.9084 27.917L29.1831 17.637C29.4239 17.4029 29.5724 17.0766 29.5724 16.7153C29.5724 16.0051 28.9975 15.43 28.2877 15.43C28.2742 15.43 28.2619 15.43 28.2484 15.4311H28.2506C27.9041 15.4413 27.5925 15.5876 27.3676 15.8183L19.2852 23.9058V1.30666C19.2852 1.30103 19.2852 1.2954 19.2852 1.28977C19.2852 0.57961 18.7104 0.00450183 18.0006 0.00450183C17.9938 0.00450183 17.9871 0.00450183 17.9803 0.00450183H17.9814V0ZM1.30263 33.4295C1.297 33.4295 1.29138 33.4295 1.28463 33.4295C0.574821 33.4295 0 34.0046 0 34.7147C0 35.4249 0.575946 36 1.28463 36C1.29138 36 1.297 36 1.30375 36H34.6974C34.703 36 34.7086 36 34.7154 36C35.4252 36 36 35.4249 36 34.7147C36 34.0046 35.4252 33.4295 34.7154 33.4295C34.7086 33.4295 34.703 33.4295 34.6962 33.4295H1.30263Z" fill="#25836D"/>
</svg>
