<svg width="36" height="36" viewBox="0 0 36 36" fill="none" xmlns="http://www.w3.org/2000/svg">
<path fill-rule="evenodd" clip-rule="evenodd" d="M4.28571 8.57143C6.65314 8.57143 8.57143 6.65314 8.57143 4.28571C8.57143 1.91829 6.65314 0 4.28571 0C1.91829 0 0 1.91829 0 4.28571C0 6.65314 1.91829 8.57143 4.28571 8.57143ZM4.28571 1.71429C5.70343 1.71429 6.85714 2.868 6.85714 4.28571C6.85714 5.70343 5.70343 6.85714 4.28571 6.85714C2.868 6.85714 1.71429 5.70343 1.71429 4.28571C1.71429 2.868 2.868 1.71429 4.28571 1.71429ZM0 31.7143C0 29.3469 1.91829 27.4286 4.28571 27.4286C6.65314 27.4286 8.57143 29.3469 8.57143 31.7143C8.57143 34.0817 6.65314 36 4.28571 36C1.91829 36 0 34.0817 0 31.7143ZM4.28571 34.2857C2.868 34.2857 1.71429 33.132 1.71429 31.7143C1.71429 30.2966 2.868 29.1429 4.28571 29.1429C5.70343 29.1429 6.85714 30.2966 6.85714 31.7143C6.85714 33.132 5.70343 34.2857 4.28571 34.2857ZM0 18C0 15.6326 1.91829 13.7143 4.28571 13.7143C6.65314 13.7143 8.57143 15.6326 8.57143 18C8.57143 20.3674 6.65314 22.2857 4.28571 22.2857C1.91829 22.2857 0 20.3674 0 18ZM4.28571 20.5714C2.868 20.5714 1.71429 19.4177 1.71429 18C1.71429 16.5823 2.868 15.4286 4.28571 15.4286C5.70343 15.4286 6.85714 16.5823 6.85714 18C6.85714 19.4177 5.70343 20.5714 4.28571 20.5714ZM36 5.14286H12V3.42857H36V5.14286ZM36 32.5714H12V30.8571H36V32.5714ZM12 18.8571H36V17.1429H12V18.8571Z" fill="#25836D"/>
</svg>
